<svg xmlns="http://www.w3.org/2000/svg" version="1.1" id="svg1" width="366.66666" height="366.66666" viewBox="0 0 366.66666 366.66666" sodipodi:docname="rect4.svg" inkscape:version="1.4.2 (f4327f4, 2025-05-13)" xmlns:inkscape="http://www.inkscape.org/namespaces/inkscape" xmlns:sodipodi="http://sodipodi.sourceforge.net/DTD/sodipodi-0.dtd" xmlns:svg="http://www.w3.org/2000/svg"><metadata><rdf:RDF xmlns:rdf="http://www.w3.org/1999/02/22-rdf-syntax-ns#" xmlns:dc="http://purl.org/dc/elements/1.1/"><rdf:Description><dc:creator>RealFaviconGenerator</dc:creator><dc:source>https://realfavicongenerator.net</dc:source></rdf:Description></rdf:RDF></metadata><defs id="defs1"></defs><sodipodi:namedview id="namedview1" pagecolor="#ffffff" bordercolor="#000000" borderopacity="0.25" inkscape:showpageshadow="2" inkscape:pageopacity="0.0" inkscape:pagecheckerboard="0" inkscape:deskcolor="#d1d1d1" inkscape:zoom="0.95459419" inkscape:cx="232.55955" inkscape:cy="84.329028" inkscape:window-width="1366" inkscape:window-height="697" inkscape:window-x="-8" inkscape:window-y="-8" inkscape:window-maximized="1" inkscape:current-layer="g1">
    <inkscape:page x="0" y="0" inkscape:label="1" id="page1" width="366.66666" height="366.66666" margin="0" bleed="0"></inkscape:page>
  </sodipodi:namedview><g id="g1" inkscape:groupmode="layer" inkscape:label="1">
    <path id="rect1" style="fill:#ffffff;stroke-width:7.55906;stroke-linecap:round;stroke-linejoin:round;stroke-miterlimit:3;paint-order:stroke fill markers" d="M 32.487309,0 H 334.17935 c 17.99797,0 32.48731,14.48934 32.48731,32.487309 V 334.17935 c 0,17.99797 -14.48934,32.48731 -32.48731,32.48731 H 32.487309 C 14.48934,366.66666 0,352.17732 0,334.17935 V 32.487309 C 0,14.48934 14.48934,0 32.487309,0 Z"></path>
    <path id="path2" d="m 181.00668,47.285442 c -29.33184,0.295503 -58.53169,6.405281 -88.896042,18.418103 l -13.358351,5.282838 0.01402,6.666911 c 0.0047,3.66283 0.888844,25.722736 1.965735,49.018386 2.660691,57.64285 5.73018,83.1974 12.54309,104.26218 11.611028,35.92517 34.528248,60.36194 76.535158,81.60893 4.50729,2.28109 13.52304,6.84328 13.52304,6.84328 0,0 9.01575,-4.56219 13.52304,-6.84328 42.00224,-21.24699 64.91946,-45.68376 76.53516,-81.60893 6.80824,-21.06478 9.8824,-46.61933 12.54309,-104.26218 1.07689,-23.29565 1.96106,-45.355556 1.96573,-49.018386 l 0.014,-6.666911 -13.35835,-5.282838 c -30.36435,-12.012822 -59.56421,-18.1226 -88.89605,-18.418103 -0.77554,-0.0093 -1.55109,0.0035 -2.32664,0.0035 -0.77555,0 -1.5511,-0.01285 -2.32665,-0.0035 z m -2.204,56.985278 18.05836,0.0958 7.39107,7.28595 v 42.668 l -6.08642,6.08175 24.01747,23.79788 h 8.0066 v -9.12904 l -11.41014,-11.41598 21.96296,-21.95829 -7.23105,-7.23222 3.9011,-3.9011 11.13216,11.13332 -21.96414,21.95829 9.12554,9.13021 v 16.93125 h -13.43193 l 0.54779,31.62227 -23.05504,23.05388 -18.26743,-17.71614 7.80103,-7.80571 7.80688,7.80571 7.34551,-7.08973 v -17.04103 l -0.91687,0.92154 -8.59995,8.59644 -16.83196,0.0724 -6.25928,6.25578 -16.62523,-16.6264 7.80103,-7.80571 7.8022,7.80571 h 15.97816 l 0.0362,-6.72531 -0.11913,-9.79948 -20.38034,-20.94681 h -13.66436 l -16.04124,9.19329 h -20.45858 v -12.6926 H 131.59 l 16.77591,-9.68617 -19.46346,-19.45879 v -18.97056 h 14.06265 v 12.65171 l 18.31765,18.32233 14.97369,-8.6455 -9.32994,-9.32993 h -11.03638 v -11.03638 z" style="fill:#000000;fill-opacity:1;fill-rule:nonzero;stroke:none;stroke-width:1.16799"></path>
  </g></svg>