<?xml version="1.0" encoding="UTF-8" standalone="no"?>
<!-- Created with Inkscape (http://www.inkscape.org/) -->

<svg
   xmlns:dc="http://purl.org/dc/elements/1.1/"
   xmlns:cc="http://creativecommons.org/ns#"
   xmlns:rdf="http://www.w3.org/1999/02/22-rdf-syntax-ns#"
   xmlns:svg="http://www.w3.org/2000/svg"
   xmlns="http://www.w3.org/2000/svg"
   xmlns:sodipodi="http://sodipodi.sourceforge.net/DTD/sodipodi-0.dtd"
   xmlns:inkscape="http://www.inkscape.org/namespaces/inkscape"
   width="288mm"
   height="288mm"
   viewBox="0 0 288 288"
   version="1.1"
   id="svg8"
   inkscape:version="0.92.1 r15371"
   sodipodi:docname="safari-pinned-tab.svg"
   inkscape:export-filename="C:\Users\ciro\Desktop\Source\iconempty.png"
   inkscape:export-xdpi="45.155479"
   inkscape:export-ydpi="45.155479">
  <defs
     id="defs2" />
  <sodipodi:namedview
     id="base"
     pagecolor="#ffffff"
     bordercolor="#666666"
     borderopacity="1.0"
     inkscape:pageopacity="0"
     inkscape:pageshadow="2"
     inkscape:zoom="0.35"
     inkscape:cx="539.33728"
     inkscape:cy="672.10641"
     inkscape:document-units="mm"
     inkscape:current-layer="layer2"
     showgrid="false"
     showguides="true"
     inkscape:guide-bbox="true"
     inkscape:window-width="1366"
     inkscape:window-height="706"
     inkscape:window-x="-8"
     inkscape:window-y="-8"
     inkscape:window-maximized="1"
     objecttolerance="20" />
  <metadata
     id="metadata5">
    <rdf:RDF>
      <cc:Work
         rdf:about="">
        <dc:format>image/svg+xml</dc:format>
        <dc:type
           rdf:resource="http://purl.org/dc/dcmitype/StillImage" />
        <dc:title></dc:title>
      </cc:Work>
    </rdf:RDF>
  </metadata>
  <g
     inkscape:groupmode="layer"
     id="layer2"
     inkscape:label="Camada 2"
     transform="translate(0,-9)"
     style="display:inline">
    <path
       style="display:inline;opacity:1;fill:#000000;fill-opacity:1;stroke:#ffe7ce;stroke-width:1.02921712;stroke-linecap:round;stroke-linejoin:round;stroke-miterlimit:4;stroke-dasharray:none;stroke-dashoffset:0;stroke-opacity:1;paint-order:markers fill stroke"
       d="M 170.80273 0.51367188 C 76.463315 0.51367188 0.51367187 76.463315 0.51367188 170.80273 L 0.51367188 917.70117 C 0.51367188 1012.0406 76.463315 1087.9902 170.80273 1087.9902 L 917.70117 1087.9902 C 1012.0406 1087.9902 1087.9902 1012.0406 1087.9902 917.70117 L 1087.9902 170.80273 C 1087.9902 76.463315 1012.0406 0.51367187 917.70117 0.51367188 L 170.80273 0.51367188 z M 640.69141 74.152344 C 693.00643 73.994428 739.07567 97.258189 773.68359 139.06445 C 801.33777 172.47054 822.04781 217.39234 834.17773 271.55469 C 856.86256 276.45786 878.46714 282.72865 898.70117 290.42969 C 990.85088 325.50194 1039.0022 385.37074 1039.5957 453.89258 C 1040.1433 517.18495 1000.8929 586.48693 923.49805 650.67188 C 926.44459 661.16543 929.01998 671.61869 931.1582 682.00195 A 6.8307952 6.4979432 0 0 1 931.28711 682.75 A 6.485823 6.8628979 74.906666 0 1 933.84766 684.07422 C 951.51456 685.49073 966.41618 697.27576 967.07812 714.39062 C 967.71882 730.95578 955.38104 745.49697 938.73828 749.62109 C 939.55054 839.66684 898.74193 901.70191 831.20508 926.7832 C 779.71306 945.90589 713.67038 943.88725 639.36328 919.22852 C 610.47494 947.86403 579.60513 971.24181 547.41211 987.86914 C 466.82503 1029.4913 390.91733 1020.6145 335.89453 971.45508 C 297.72248 937.35091 269.41125 884.60543 254.32031 816.91016 C 243.96703 814.6794 233.81558 812.17309 223.90625 809.36523 A 6.8307951 6.4979431 0 0 1 223.37891 809.20117 C 217.33974 819.71274 205.70859 827.22275 192.27734 828.03516 C 172.15295 829.25305 154.90476 815.0709 154.16211 796.20703 C 153.9828 791.65231 154.84505 787.35354 156.52539 783.42578 C 75.096412 741.95481 39.712997 677.70373 50.921875 608.22852 C 60.087373 551.41892 99.381374 491.6533 166.69922 436.37891 C 158.437 409.91701 152.63479 383.75475 149.65039 358.28125 C 138.37422 262.03297 169.86767 191.41427 231.54883 157.11133 C 287.84073 125.80555 367.61586 125.02668 460.22266 158.66797 C 476.03015 144.04085 492.41871 130.94073 509.29297 119.58203 C 508.63102 117.24301 508.2247 114.79664 508.125 112.26367 C 507.45136 95.15442 521.36406 81.615018 538.83398 78.0625 A 6.4858229 6.8628978 74.906666 0 1 543.5918 75.912109 A 6.4858229 6.8628978 74.906666 0 1 543.61914 75.912109 A 6.4858229 6.8628978 74.906666 0 1 548.50391 77.476562 C 557.53142 78.200312 565.83193 81.635664 571.88477 87.101562 C 595.6637 78.41737 618.72811 74.218641 640.69141 74.152344 z M 640.82422 86.792969 C 621.48844 86.968473 601.06643 90.676609 579.69727 98.169922 C 580.88625 101.1366 581.60337 104.35343 581.73633 107.79102 C 582.46596 126.65565 566.36653 142.90189 546.24219 144.11914 C 533.84938 144.86905 522.55231 139.76477 515.52344 131.33008 C 501.43189 140.94243 487.65706 151.88085 474.26562 164.00195 C 478.54083 165.69204 482.83296 167.42757 487.1582 169.26172 C 540.04543 191.68894 592.06123 222.92962 640.91992 260.31836 C 703.66776 255.79118 764.41059 258.33409 819.37695 268.58008 C 807.42496 218.56151 787.98865 177.38512 762.93555 147.12109 C 730.38603 107.80146 688.97111 86.355955 640.82422 86.792969 z M 545.32422 88.876953 C 544.92382 88.882618 544.52066 88.897567 544.11523 88.921875 A 6.4858229 6.8628978 74.906666 0 1 544.08789 88.921875 C 531.11458 89.714687 521.31948 99.787046 521.77734 111.40039 L 521.7793 111.40039 C 522.23649 123.01374 532.79999 131.89489 545.77344 131.10938 C 558.74702 130.32423 568.50645 120.24667 568.05664 108.63281 C 567.62141 97.381894 557.73672 88.701355 545.32422 88.876953 z M 331.70898 146.58203 C 295.48978 146.57859 264.02313 154.12647 238.45508 168.3457 C 182.02894 199.72608 152.32621 263.8976 163.2168 356.85547 C 165.89743 379.73621 170.98687 403.29437 178.21289 427.20312 C 190.77798 417.43511 204.20298 407.81768 218.5332 398.4043 C 252.95824 375.79074 290.38201 355.66115 329.68555 338.19727 C 362.65765 272.62813 403.48756 214.22662 449.63086 168.79102 C 406.5489 153.73901 366.88212 146.58538 331.70898 146.58203 z M 463.66602 173.91602 C 420.73973 215.39737 382.08147 268.95853 350.07227 329.45312 C 389.50942 313.10934 430.59189 299.39387 472.25977 288.50781 C 521.53797 275.6335 571.62022 266.71373 620.73633 262.02148 C 576.12476 228.97269 529.13212 201.29931 481.58984 181.13867 C 475.5553 178.57968 469.58224 176.1807 463.66602 173.91602 z M 699.30078 271.57812 C 685.33026 271.61097 671.17328 272.0376 656.88672 272.83008 C 698.18209 306.03746 736.96387 343.56399 771.77539 383.74805 C 792.55267 407.7319 811.89866 432.66736 829.53906 458.1875 C 830.97372 443.31537 831.96465 428.45243 832.46094 413.64453 C 834.07223 365.56947 830.46903 321.58306 822.48438 282.54883 C 784.15678 275.06134 742.60865 271.47635 699.30078 271.57812 z M 636.73828 274.19727 C 537.92659 282.03968 433.92335 307.40509 340.61328 347.91016 C 302.38438 425.0398 274.87573 512.1269 262.67773 599.13086 C 316.56377 679.07096 388.06923 754.41448 467.82031 812.98438 C 562.45674 803.66735 660.4839 778.53976 748.28711 740.40234 C 787.67149 660.92748 815.76531 570.43746 827.17773 479.4668 C 776.72395 403.35486 710.3786 331.61072 636.73828 274.19727 z M 837.07617 285.64258 C 844.47486 324.3427 847.68709 367.38576 846.12305 414.05273 C 845.43455 434.59568 843.8392 455.22512 841.40039 475.82812 C 875.72014 528.36981 902.58328 583.02351 919.38672 636.79688 C 991.45619 575.47975 1026.4289 510.80765 1025.9375 453.99805 C 1025.3937 391.13038 982.37223 336.26983 893.61328 302.48828 C 875.87818 295.7383 856.94905 290.14702 837.07617 285.64258 z M 320.57812 356.91602 C 287.34528 372.38575 255.66049 389.80765 226.30078 409.09375 C 210.57532 419.42366 195.99094 429.9809 182.51562 440.69336 C 198.10627 487.3871 221.62988 535.18272 251.2793 581.74219 C 258.0419 539.07274 268.33653 496.56579 281.70508 455.33008 C 292.68431 421.46411 305.73309 388.45724 320.57812 356.91602 z M 543.22266 424.93164 A 111.65313 112.18663 0 0 1 655.83398 536.00391 L 655.83789 536.57031 A 111.65313 112.18663 0 0 1 544.86719 649.29883 A 111.65313 112.18663 0 0 1 432.53516 537.94141 A 111.65313 112.18663 0 0 1 543.22266 424.93164 z M 171.14453 450.00391 C 108.46872 502.77291 72.714432 558.82392 64.423828 610.21094 C 53.988349 674.89216 85.480542 732.97774 164.15625 772.57422 C 169.6075 767.36614 176.86284 763.63283 184.87109 762.00391 A 6.4858231 6.862898 74.906666 0 1 189.63086 759.85547 A 6.4858231 6.862898 74.906666 0 1 189.68164 759.85352 A 6.4858231 6.862898 74.906666 0 1 194.56641 761.41602 C 212.23108 762.83444 227.11148 774.59564 227.77344 791.70898 C 227.84068 793.44747 227.76134 795.16336 227.55273 796.84766 A 6.8307951 6.4979431 0 0 1 227.81836 796.91797 C 235.53112 799.10341 243.4183 801.08359 251.43359 802.9043 C 246.47424 776.86594 243.37602 748.79345 242.34961 718.83984 C 241.0426 680.69783 243.12983 641.6936 248.24023 602.67383 C 215.02306 552.71698 188.60604 500.92743 171.14453 450.00391 z M 838.56836 497.16602 C 826.60741 578.75744 801.68111 659.31499 767.51172 731.76953 C 814.0075 710.17925 857.24843 684.87942 895.07422 656.28711 C 899.50906 652.93484 903.79793 649.56584 908.00391 646.1875 C 893.13472 596.78583 869.23942 546.24433 838.56836 497.16602 z M 260.0625 619.98047 C 256.35837 653.10625 254.9103 686.10502 256.01758 718.41797 C 257.0968 749.912 260.52527 779.17321 266.00195 806.00391 C 321.70759 816.92581 383.72731 819.53668 447.76367 814.73047 C 375.6738 760.03401 310.86827 692.3089 260.0625 619.98047 z M 911.94727 660.01758 C 909.19653 662.1765 906.40276 664.32915 903.56445 666.47461 C 860.72058 698.86008 811.37216 727.09488 758.3418 750.58984 C 756.87068 753.51019 755.38971 756.42023 753.88867 759.31055 C 724.27919 816.32519 688.91807 867.4208 649.60352 908.76562 C 719.22636 930.81583 780.04378 931.84724 826.23438 914.69336 C 888.29411 891.64599 925.66466 836.40359 925.09375 750.56641 C 907.8812 748.75559 894.12796 735.65999 893.4668 718.86328 C 892.87028 703.71033 903.72101 691.36255 918.3457 686.26758 A 6.8307952 6.4979432 0 0 1 917.76172 684.51562 C 916.08989 676.39717 914.1445 668.22565 911.94727 660.01758 z M 930.66602 695.47461 C 930.26561 695.48027 929.86246 695.49522 929.45703 695.51953 A 6.485823 6.8628979 74.906666 0 1 929.4043 695.52148 C 916.43112 696.31404 906.66323 706.3847 907.12109 717.99805 C 907.57815 729.61139 918.14374 738.49452 931.11719 737.70898 C 944.09077 736.92371 953.8502 726.84433 953.40039 715.23047 C 952.96529 703.97967 943.07864 695.29902 930.66602 695.47461 z M 738.76367 758.98828 C 658.26909 792.33839 570.31978 814.92394 484.28125 824.74609 C 512.19896 844.16383 541.01739 861.49052 570.35742 876.20703 C 592.70896 887.41821 614.46747 896.67657 635.48438 904.06641 C 674.05895 864.40136 709.22047 814.77229 738.76367 758.98828 z M 191.35938 772.79297 C 190.95897 772.79859 190.55582 772.81358 190.15039 772.83789 A 6.4858231 6.862898 74.906666 0 1 190.125 772.83789 C 177.1518 773.63057 167.35726 783.72845 167.81445 795.3418 C 168.27166 806.95514 178.83702 815.83631 191.81055 815.05078 C 204.78407 814.26576 214.54302 804.18795 214.09375 792.57422 C 213.65857 781.32329 203.772 772.61883 191.35938 772.79297 z M 269.07812 819.86133 C 284.07364 882.79831 310.82405 931.20947 345.26953 961.98438 C 396.41744 1007.6817 464.08246 1016.1139 540.89453 976.44141 C 570.04497 961.38559 598.38435 940.24274 625.21875 914.2832 C 605.31326 907.01099 584.86774 898.17692 563.97852 887.69922 C 529.75655 870.53399 496.28527 849.98904 464.11719 826.81641 C 395.84465 833.0406 329.2514 831.06315 269.07812 819.86133 z "
       transform="matrix(0.26458333,0,0,0.26458333,0,9)"
       id="rect4491" />
  </g>
  <g
     inkscape:label="Camada 1"
     inkscape:groupmode="layer"
     id="layer1"
     style="display:inline"
     transform="translate(0,-9)">
    <g
       id="g4599"
       transform="matrix(3.5525995,0,0,3.3794879,-229.31544,-313.54801)" />
  </g>
</svg>
