<?xml version="1.0" standalone="no"?>
<!DOCTYPE svg PUBLIC "-//W3C//DTD SVG 20010904//EN"
 "http://www.w3.org/TR/2001/REC-SVG-20010904/DTD/svg10.dtd">
<svg version="1.0" xmlns="http://www.w3.org/2000/svg"
 width="1089.000000pt" height="1089.000000pt" viewBox="0 0 1089.000000 1089.000000"
 preserveAspectRatio="xMidYMid meet">
<metadata>
Created by potrace 1.11, written by Peter Selinger 2001-2013
</metadata>
<g transform="translate(0.000000,1089.000000) scale(0.100000,-0.100000)"
fill="#000000" stroke="none">
<path d="M6290 10144 c-172 -17 -371 -57 -503 -103 l-58 -20 -44 33 c-69 53
-127 71 -230 71 -80 0 -97 -4 -157 -32 -83 -39 -151 -106 -186 -181 -21 -47
-26 -71 -25 -140 l0 -82 -66 -47 c-94 -67 -243 -185 -337 -269 l-80 -72 -132
44 c-238 80 -521 147 -757 179 -178 25 -514 30 -680 11 -252 -29 -438 -83
-650 -186 -513 -252 -828 -743 -895 -1396 -16 -149 -7 -548 14 -704 24 -164
70 -384 117 -556 23 -82 42 -154 43 -159 0 -6 -53 -58 -119 -116 -575 -508
-920 -1036 -1026 -1569 -30 -151 -33 -418 -6 -554 95 -474 404 -866 915 -1162
l132 -77 -7 -36 c-62 -293 247 -506 529 -365 47 24 110 79 138 121 l15 22 154
-40 c85 -21 155 -40 156 -41 1 -2 16 -61 34 -132 189 -744 568 -1321 1058
-1613 147 -87 349 -164 528 -200 129 -25 480 -25 620 1 504 93 980 352 1479
804 l133 121 129 -40 c329 -100 622 -148 949 -156 271 -6 433 9 641 62 323 81
574 223 790 447 301 313 448 705 480 1279 l6 106 37 12 c56 16 145 85 180 138
87 131 77 282 -25 401 -45 53 -147 104 -219 110 -45 4 -54 8 -58 26 -3 11 -20
83 -38 160 l-33 139 69 60 c128 111 450 441 539 552 263 329 446 689 516 1020
27 126 38 395 21 517 -47 331 -195 615 -455 874 -329 328 -812 575 -1416 726
-91 22 -166 42 -168 43 -2 1 -20 69 -42 151 -112 430 -276 787 -496 1084 -99
134 -311 345 -434 432 -174 124 -417 230 -620 272 -144 29 -334 41 -460 30z
m432 -154 c664 -141 1161 -704 1428 -1617 44 -151 48 -178 24 -169 -28 11
-354 55 -534 73 -132 13 -278 17 -600 17 -234 1 -472 -1 -530 -3 l-105 -5
-125 93 c-166 124 -489 338 -675 447 -191 112 -529 283 -710 359 -77 32 -142
61 -145 63 -11 8 205 189 341 285 l66 46 32 -33 c19 -19 61 -47 95 -62 53 -25
73 -29 156 -29 86 0 101 3 162 32 150 71 235 221 208 365 -6 28 -7 55 -3 59
22 22 256 76 448 103 78 11 373 -4 467 -24z m-1167 -9 c142 -66 168 -228 53
-338 -72 -69 -183 -84 -277 -37 -70 35 -103 86 -109 164 -7 97 43 173 140 215
47 20 145 18 193 -4z m-2065 -565 c260 -10 570 -71 900 -177 52 -17 97 -33 99
-35 2 -2 -52 -63 -119 -136 -377 -407 -713 -886 -989 -1408 l-82 -155 -67 -29
c-114 -50 -478 -234 -609 -307 -253 -142 -519 -313 -728 -468 -86 -64 -111
-78 -117 -66 -5 8 -26 84 -48 170 -360 1409 104 2401 1210 2591 93 16 326 32
385 27 17 -1 91 -5 165 -7z m1334 -341 c369 -157 712 -345 1076 -588 179 -119
300 -207 300 -218 0 -5 -16 -9 -35 -9 -48 0 -387 -44 -570 -74 -675 -112
-1399 -313 -2007 -559 -49 -20 -88 -33 -88 -30 0 10 89 171 173 313 177 300
405 622 616 870 114 135 338 370 352 370 5 0 88 -34 183 -75z m2684 -915 c271
-21 696 -80 714 -98 23 -23 80 -461 98 -747 17 -270 8 -708 -18 -947 l-7 -62
-112 154 c-421 580 -946 1140 -1508 1610 -55 46 -101 87 -103 91 -8 19 689 18
936 -1z m-1040 -89 c646 -514 1250 -1166 1742 -1878 l64 -93 -18 -127 c-105
-770 -369 -1643 -711 -2359 l-62 -131 -109 -46 c-776 -327 -1692 -566 -2541
-663 l-152 -17 -113 85 c-662 497 -1316 1171 -1819 1875 -90 126 -119 174
-119 198 0 39 51 342 85 505 136 650 389 1394 653 1919 l37 75 154 63 c748
308 1607 535 2396 632 438 54 393 57 513 -38z m2098 -85 c539 -150 958 -368
1249 -653 665 -647 580 -1539 -229 -2436 -83 -92 -280 -282 -363 -351 l-31
-26 -32 97 c-139 420 -363 888 -648 1353 -52 85 -96 157 -97 160 -2 3 3 59 10
125 38 344 45 973 15 1270 -11 115 -57 444 -67 483 -7 31 6 30 193 -22z
m-5392 -743 c-168 -366 -326 -797 -443 -1203 -74 -259 -185 -751 -207 -917 -3
-29 -10 -50 -14 -48 -29 18 -312 522 -411 733 -114 241 -269 625 -269 667 0
38 460 354 810 555 138 80 546 290 562 290 4 0 -8 -35 -28 -77z m-1411 -984
c143 -388 381 -861 635 -1258 l85 -134 -17 -161 c-67 -641 -56 -1227 32 -1743
10 -57 16 -103 14 -103 -4 0 -137 33 -202 50 -34 9 -35 11 -37 60 -4 124 -78
232 -195 286 -56 26 -74 29 -158 29 -83 0 -103 -4 -155 -28 -33 -15 -77 -41
-97 -58 l-38 -30 -52 27 c-29 15 -93 52 -142 82 -415 257 -687 599 -776 976
-46 193 -45 410 1 624 81 372 322 785 681 1166 86 92 357 346 368 346 3 0 27
-59 53 -131z m6705 -471 c186 -314 345 -634 467 -943 83 -211 149 -415 139
-425 -42 -38 -302 -226 -439 -316 -236 -155 -430 -267 -714 -412 -183 -94
-243 -120 -238 -106 3 10 41 100 85 199 259 587 463 1257 577 1899 19 109 35
207 35 217 0 11 2 19 5 19 2 0 40 -60 83 -132z m-5726 -1286 c456 -608 983
-1155 1564 -1620 l172 -137 -47 -9 c-77 -14 -946 -13 -1111 2 -245 22 -624 76
-650 92 -25 15 -79 376 -100 660 -23 319 -9 952 26 1170 l6 35 17 -25 c9 -13
64 -89 123 -168z m6413 -349 c13 -59 20 -109 15 -111 -5 -2 -36 -21 -69 -42
-68 -44 -123 -112 -147 -183 -22 -67 -16 -177 14 -239 45 -92 146 -168 245
-184 l37 -7 0 -91 c0 -203 -51 -488 -120 -675 -105 -286 -292 -535 -525 -700
-160 -113 -403 -214 -610 -255 -302 -59 -665 -54 -1023 15 -183 35 -472 112
-472 126 0 3 29 37 65 74 310 329 671 850 940 1356 l80 151 157 72 c428 197
935 496 1268 748 78 59 107 76 113 67 4 -8 18 -62 32 -122z m265 -243 c125
-64 151 -227 53 -322 -60 -56 -98 -72 -178 -73 -59 0 -78 4 -118 28 -141 83
-140 268 2 354 29 18 65 34 80 36 45 8 122 -3 161 -23z m-2066 -677 c-284
-513 -601 -960 -921 -1302 l-78 -83 -100 37 c-402 150 -863 390 -1274 663
l-145 96 225 32 c751 106 1455 288 2124 548 105 41 194 75 198 75 4 1 -9 -29
-29 -66z m-5339 -92 c146 -68 169 -238 45 -343 -68 -59 -176 -75 -255 -39
-164 74 -167 288 -5 374 64 33 153 37 215 8z m920 -486 c312 -45 531 -59 925
-59 212 -1 454 5 576 13 l210 14 70 -50 c434 -316 1064 -654 1518 -817 25 -9
19 -15 -134 -149 -1111 -974 -2249 -976 -2940 -7 -143 200 -257 426 -352 695
-40 113 -118 373 -118 393 0 3 17 2 38 -2 20 -3 114 -17 207 -31z"/>
<path d="M5276 6629 c-147 -21 -328 -93 -457 -179 -87 -59 -229 -199 -288
-284 -98 -143 -166 -308 -191 -468 -18 -112 -8 -351 19 -451 110 -414 400
-704 819 -819 66 -18 104 -22 262 -22 169 0 193 3 285 27 379 102 681 400 789
779 147 514 -92 1063 -570 1308 -196 100 -446 141 -668 109z"/>
</g>
</svg>
