<?xml version="1.0" encoding="UTF-8" standalone="no"?>
<!-- Created with Inkscape (http://www.inkscape.org/) -->

<svg
   xmlns:dc="http://purl.org/dc/elements/1.1/"
   xmlns:cc="http://creativecommons.org/ns#"
   xmlns:rdf="http://www.w3.org/1999/02/22-rdf-syntax-ns#"
   xmlns:svg="http://www.w3.org/2000/svg"
   xmlns="http://www.w3.org/2000/svg"
   xmlns:sodipodi="http://sodipodi.sourceforge.net/DTD/sodipodi-0.dtd"
   xmlns:inkscape="http://www.inkscape.org/namespaces/inkscape"
   width="288mm"
   height="288mm"
   viewBox="0 0 288 288"
   version="1.1"
   id="svg8"
   inkscape:version="0.92.1 r15371"
   sodipodi:docname="logo.svg"
   inkscape:export-filename="C:\Users\ciro\Documents\MEGAsync\Portfolio\Personal\profile_pic_large.png"
   inkscape:export-xdpi="44.097225"
   inkscape:export-ydpi="44.097225">
  <defs
     id="defs2" />
  <sodipodi:namedview
     id="base"
     pagecolor="#ffffff"
     bordercolor="#666666"
     borderopacity="1.0"
     inkscape:pageopacity="0"
     inkscape:pageshadow="2"
     inkscape:zoom="0.35"
     inkscape:cx="180.73937"
     inkscape:cy="626.26855"
     inkscape:document-units="mm"
     inkscape:current-layer="layer1"
     showgrid="false"
     showguides="true"
     inkscape:guide-bbox="true"
     inkscape:window-width="1366"
     inkscape:window-height="706"
     inkscape:window-x="-8"
     inkscape:window-y="-8"
     inkscape:window-maximized="1"
     objecttolerance="20" />
  <metadata
     id="metadata5">
    <rdf:RDF>
      <cc:Work
         rdf:about="">
        <dc:format>image/svg+xml</dc:format>
        <dc:type
           rdf:resource="http://purl.org/dc/dcmitype/StillImage" />
        <dc:title></dc:title>
      </cc:Work>
    </rdf:RDF>
  </metadata>
  <g
     inkscape:groupmode="layer"
     id="layer2"
     inkscape:label="Camada 2"
     transform="translate(0,-9)" />
  <g
     inkscape:label="Camada 1"
     inkscape:groupmode="layer"
     id="layer1"
     style="display:inline"
     transform="translate(0,-9)">
    <g
       id="g4599"
       transform="matrix(3.5525995,0,0,3.3794879,-229.31544,-313.54801)">
      <path
         sodipodi:open="true"
         d="m 113.39276,137.45147 a 8.3154764,8.7831984 0 0 1 -8.26459,8.82561 8.3154764,8.7831984 0 0 1 -8.366043,-8.71831 8.3154764,8.7831984 0 0 1 8.243493,-8.84759 8.3154764,8.7831984 0 0 1 8.38683,8.69601"
         sodipodi:end="6.2732957"
         sodipodi:start="6.278338"
         sodipodi:ry="8.7831984"
         sodipodi:rx="8.3154764"
         sodipodi:cy="137.49405"
         sodipodi:cx="105.07738"
         sodipodi:type="arc"
         id="path4485"
         style="fill:#000000;fill-opacity:1;stroke:#4be329;stroke-width:0;stroke-linecap:round;stroke-linejoin:round;stroke-miterlimit:4;stroke-dasharray:none;stroke-dashoffset:0;stroke-opacity:0.94835678;paint-order:normal" />
      <path
         sodipodi:open="true"
         transform="rotate(-15.485999)"
         d="m 32.062025,171.19086 a 37.337139,20.199881 0 0 1 12.182887,-27.09374 37.337139,20.199881 0 0 1 50.599312,5.30363 37.337139,20.199881 0 0 1 -7.401504,27.5949 37.337139,20.199881 0 0 1 -51.298717,-2.69605"
         sodipodi:end="2.4294015"
         sodipodi:start="2.6184619"
         sodipodi:ry="20.199881"
         sodipodi:rx="37.337139"
         sodipodi:cy="161.09911"
         sodipodi:cx="64.40567"
         sodipodi:type="arc"
         id="path4491"
         style="fill:none;fill-opacity:1;stroke:#000000;stroke-width:1.01735866;stroke-linecap:round;stroke-linejoin:round;stroke-miterlimit:4;stroke-dasharray:none;stroke-dashoffset:0;stroke-opacity:1;paint-order:normal" />
      <path
         sodipodi:open="true"
         transform="rotate(48.632873)"
         style="fill:none;fill-opacity:1;stroke:#000000;stroke-width:1.01735866;stroke-linecap:round;stroke-linejoin:round;stroke-miterlimit:4;stroke-dasharray:none;stroke-dashoffset:0;stroke-opacity:1;paint-order:normal"
         id="path4499"
         sodipodi:type="arc"
         sodipodi:cx="172.54608"
         sodipodi:cy="12.042274"
         sodipodi:rx="37.337139"
         sodipodi:ry="20.199881"
         sodipodi:start="5.7150259"
         sodipodi:end="5.5359512"
         d="m 204.01729,1.1730916 a 37.337139,20.199881 0 0 1 -9.99246,27.3920204 37.337139,20.199881 0 0 1 -51.02745,-4.174738 37.337139,20.199881 0 0 1 5.42512,-27.7656905 37.337139,20.199881 0 0 1 51.51304,1.689502" />
      <path
         style="fill:none;fill-opacity:1;stroke:#000000;stroke-width:1.01735866;stroke-linecap:round;stroke-linejoin:round;stroke-miterlimit:4;stroke-dasharray:none;stroke-dashoffset:0;stroke-opacity:1;paint-order:normal"
         id="path4501"
         sodipodi:type="arc"
         sodipodi:cx="-103.43826"
         sodipodi:cy="139.28941"
         sodipodi:rx="37.337139"
         sodipodi:ry="20.199881"
         sodipodi:start="5.8931007"
         sodipodi:end="5.6923701"
         sodipodi:open="true"
         d="m -68.906006,131.60807 a 37.337139,20.199881 0 0 1 -18.619868,25.95492 37.337139,20.199881 0 0 1 -48.848266,-8.75897 37.337139,20.199881 0 0 1 13.71926,-26.83365 37.337139,20.199881 0 0 1 50.22462,6.06694"
         transform="rotate(-73.875084)" />
      <path
         transform="matrix(-0.0054879,-0.99998494,0.99942435,-0.03392579,0,0)"
         d="m -105.44335,104.53527 a 2.1640873,2.2348344 0 0 1 -2.09758,2.30078 2.1640873,2.2348344 0 0 1 -2.2286,-2.16543 2.1640873,2.2348344 0 0 1 2.09617,-2.30214 2.1640873,2.2348344 0 0 1 2.22993,2.16397"
         sodipodi:open="true"
         sodipodi:end="6.25195"
         sodipodi:start="6.2532157"
         sodipodi:ry="2.2348344"
         sodipodi:rx="2.1640873"
         sodipodi:cy="104.60224"
         sodipodi:cx="-107.60646"
         sodipodi:type="arc"
         id="path4503"
         style="fill:none;fill-opacity:1;stroke:#000000;stroke-width:1.01900113;stroke-linecap:round;stroke-linejoin:round;stroke-miterlimit:4;stroke-dasharray:none;stroke-dashoffset:0;stroke-opacity:1;paint-order:normal" />
      <path
         style="fill:none;fill-opacity:1;stroke:#000000;stroke-width:1.01900113;stroke-linecap:round;stroke-linejoin:round;stroke-miterlimit:4;stroke-dasharray:none;stroke-dashoffset:0;stroke-opacity:1;paint-order:normal"
         id="path4505"
         sodipodi:type="arc"
         sodipodi:cx="-156.06342"
         sodipodi:cy="133.05144"
         sodipodi:rx="2.1640873"
         sodipodi:ry="2.2348344"
         sodipodi:start="6.2532157"
         sodipodi:end="6.25195"
         sodipodi:open="true"
         d="m -153.9003,132.98447 a 2.1640873,2.2348344 0 0 1 -2.09758,2.30078 2.1640873,2.2348344 0 0 1 -2.22861,-2.16543 2.1640873,2.2348344 0 0 1 2.09617,-2.30215 2.1640873,2.2348344 0 0 1 2.22994,2.16397"
         transform="matrix(-0.0054879,-0.99998494,0.99942435,-0.03392579,0,0)" />
      <path
         transform="matrix(-0.0054879,-0.99998494,0.99942435,-0.03392579,0,0)"
         d="m -158.0851,77.869396 a 2.1640873,2.2348344 0 0 1 -2.09758,2.300777 2.1640873,2.2348344 0 0 1 -2.22861,-2.165429 2.1640873,2.2348344 0 0 1 2.09617,-2.302147 2.1640873,2.2348344 0 0 1 2.22994,2.163972"
         sodipodi:open="true"
         sodipodi:end="6.25195"
         sodipodi:start="6.2532157"
         sodipodi:ry="2.2348344"
         sodipodi:rx="2.1640873"
         sodipodi:cy="77.936363"
         sodipodi:cx="-160.24821"
         sodipodi:type="arc"
         id="path4507"
         style="fill:none;fill-opacity:1;stroke:#000000;stroke-width:1.01900113;stroke-linecap:round;stroke-linejoin:round;stroke-miterlimit:4;stroke-dasharray:none;stroke-dashoffset:0;stroke-opacity:1;paint-order:normal" />
    </g>
  </g>
</svg>
