<?xml version="1.0" encoding="UTF-8" standalone="no"?>
<svg
   xmlns:dc="http://purl.org/dc/elements/1.1/"
   xmlns:cc="http://creativecommons.org/ns#"
   xmlns:rdf="http://www.w3.org/1999/02/22-rdf-syntax-ns#"
   xmlns:svg="http://www.w3.org/2000/svg"
   xmlns="http://www.w3.org/2000/svg"
   xmlns:sodipodi="http://sodipodi.sourceforge.net/DTD/sodipodi-0.dtd"
   xmlns:inkscape="http://www.inkscape.org/namespaces/inkscape"
   aria-hidden="true"
   focusable="false"
   data-prefix="fab"
   data-icon="github"
   class="svg-inline--fa fa-github fa-w-16"
   role="img"
   viewBox="0 0 496 512"
   version="1.1"
   id="svg4"
   sodipodi:docname="at.svg"
   inkscape:version="0.92.1 r15371">
  <metadata
     id="metadata10">
    <rdf:RDF>
      <cc:Work
         rdf:about="">
        <dc:format>image/svg+xml</dc:format>
        <dc:type
           rdf:resource="http://purl.org/dc/dcmitype/StillImage" />
        <dc:title></dc:title>
      </cc:Work>
    </rdf:RDF>
  </metadata>
  <defs
     id="defs8" />
  <sodipodi:namedview
     pagecolor="#ffffff"
     bordercolor="#666666"
     borderopacity="1"
     objecttolerance="10"
     gridtolerance="10"
     guidetolerance="10"
     inkscape:pageopacity="0"
     inkscape:pageshadow="2"
     inkscape:window-width="1366"
     inkscape:window-height="706"
     id="namedview6"
     showgrid="false"
     inkscape:zoom="1.3037281"
     inkscape:cx="213.69643"
     inkscape:cy="296.92375"
     inkscape:window-x="-8"
     inkscape:window-y="-8"
     inkscape:window-maximized="1"
     inkscape:current-layer="svg4" />
  <flowRoot
     xml:space="preserve"
     id="flowRoot4487"
     style="fill:black;fill-opacity:1;stroke:none;font-family:Quicksand;font-style:normal;font-weight:normal;font-size:192px;line-height:1.25;letter-spacing:0px;word-spacing:0px;-inkscape-font-specification:Quicksand;font-stretch:normal;font-variant:normal"><flowRegion
       id="flowRegion4489"><rect
         id="rect4491"
         width="496.81357"
         height="501.15256"
         x="2.1694915"
         y="13.016949" /></flowRegion><flowPara
       id="flowPara4493" /></flowRoot>  <g
     aria-label="@"
     style="font-style:normal;font-variant:normal;font-weight:normal;font-stretch:normal;font-size:599.10089111px;line-height:1.25;font-family:Quicksand;-inkscape-font-specification:Quicksand;letter-spacing:0px;word-spacing:0px;fill:#000000;fill-opacity:1;stroke:none;stroke-width:3.12031651"
     id="text4497">
    <path
       d="m 235.71843,495.93989 q -44.33346,0 -82.67592,-13.77932 -38.34246,-13.77932 -67.099301,-41.33796 -28.157742,-26.95954 -44.932567,-67.0993 -16.175724,-40.13976 -16.175724,-92.26154 0,-59.91009 19.77033,-109.03636 20.36943,-49.12627 54.518181,-83.874124 34.747851,-34.747851 79.680421,-53.319979 45.53166,-19.171229 95.85614,-19.171229 45.53167,0 81.47772,14.378422 36.54516,14.378421 61.70739,40.73886 25.76134,25.761339 39.54066,62.30649 13.77932,36.54516 13.77932,80.87862 0,39.54066 -11.38291,69.49571 -10.78382,29.35594 -28.15775,49.72537 -17.37392,19.77033 -38.94155,29.95505 -20.96854,10.18471 -41.33797,10.18471 -24.56313,0 -41.93706,-11.38292 -16.77482,-11.38291 -19.77033,-34.14875 h -1.1982 q -14.97752,17.37393 -34.14875,29.35595 -19.17123,11.38291 -38.94156,11.38291 -30.55414,0 -51.52268,-21.56763 -20.36943,-21.56763 -20.36943,-62.90559 0,-23.96404 7.78832,-48.52717 8.38741,-25.16224 23.36493,-44.93257 14.97752,-20.36943 35.94605,-32.95055 21.56764,-12.58112 47.92808,-12.58112 15.57662,0 27.55864,7.18921 11.98201,6.59011 20.36943,21.56763 h 1.1982 l 6.59011,-23.96403 h 32.95055 l -23.36494,119.82018 q -17.97302,70.0948 32.35145,70.0948 14.37842,0 28.15774,-8.38741 14.37842,-8.38741 25.76134,-23.96404 11.98202,-16.17572 19.17123,-38.94156 7.18921,-23.36493 7.18921,-52.72087 0,-35.94606 -10.78382,-66.5002 Q 415.4487,118.50633 394.48017,96.339598 373.51164,74.172865 342.35839,61.591746 311.20514,49.010628 270.46628,49.010628 q -40.13976,0 -77.88311,16.774824 -37.74336,16.175725 -67.0993,46.130768 -29.355946,29.95505 -47.328973,72.49121 -17.373925,42.53616 -17.373925,95.25704 0,43.73437 13.180219,77.88312 13.779321,34.14875 37.743359,57.51368 23.96403,23.36494 56.31548,35.34695 32.95055,12.58112 71.29301,12.58112 27.55864,0 52.12177,-7.78831 24.56314,-7.18921 44.93257,-19.17123 l 13.18022,29.35595 q -50.92357,30.55414 -113.82917,30.55414 z M 224.93462,335.38085 q 12.58111,0 25.76133,-8.38741 13.77932,-8.38741 29.35595,-26.95954 l 17.37392,-95.25704 q -8.38741,-13.77932 -17.37392,-19.17123 -8.98652,-5.99101 -20.96853,-5.99101 -17.97303,0 -32.35145,9.58562 -13.77932,9.58561 -23.96404,24.56313 -9.58561,14.97752 -14.97752,32.95055 -4.79281,17.97303 -4.79281,34.74785 0,28.75685 11.98202,41.33796 11.98202,12.58112 29.95505,12.58112 z"
       style="font-style:normal;font-variant:normal;font-weight:normal;font-stretch:normal;font-family:'Source Sans Pro';-inkscape-font-specification:'Source Sans Pro';stroke-width:3.12031651"
       id="path4487" />
  </g>
</svg>
